<?xml version="1.0" encoding="utf-8"?>
<!-- Generator: Adobe Illustrator 26.0.2, SVG Export Plug-In . SVG Version: 6.00 Build 0)  -->
<svg version="1.1" id="Calque_1" xmlns="http://www.w3.org/2000/svg" xmlns:xlink="http://www.w3.org/1999/xlink" x="0px" y="0px"
	 viewBox="0 0 91.3 91.3" style="enable-background:new 0 0 91.3 91.3;" xml:space="preserve">
<style type="text/css">
	.st0{fill:#FADA80;}
</style>
<path class="st0" d="M85.3,46.2c0,22.2-18,40.1-40.1,40.1c-5.2,0-10.2-1-14.7-2.8c-1-0.4-2.1-0.9-3.1-1.4
	C14.2,75.6,5.1,61.9,5.1,46.2C5.1,24,23,6.1,45.2,6.1C67.3,6.1,85.3,24,85.3,46.2z"/>
<g id="Calque_1_00000064316740531703018070000017109843538135653249_" transform="translate(-1)">
	<path d="M31.5,69.5v14c-1-0.4-2.1-0.9-3.1-1.4V69.9l2.3-0.4H31.5z"/>
	<path id="Rectangle_76" d="M30,23.3L30,23.3c0.9,0,1.6,0.7,1.6,1.6v46.6c0,0.9-0.7,1.6-1.6,1.6l0,0c-0.9,0-1.6-0.7-1.6-1.6V24.9
		C28.4,24,29.1,23.3,30,23.3z"/>
	<path id="Tracé_3115" d="M50.2,30.1l4.1,2.5l0,0l-3.1,3.6l-1.8,0.5l-19.2,2.9h-0.1l-0.5-3.3l0,0l-0.3-3.2c0,0,0,0,0.1,0l19.2-3
		C48.6,30.1,50.2,30.1,50.2,30.1z"/>
	<path id="Tracé_3116" d="M16.2,46.7l-3-2.7l0,0l2.1-3.4l1.2-0.4l13.4-1.9H30l0.4,3.3l0,0l0.4,3.3h-0.1l-13.4,1.8
		C17.3,46.8,16.2,46.7,16.2,46.7z"/>
	<path id="Tracé_3117" d="M22.8,57.7l-0.1-0.1l-0.6-3.9l0,0c0,0.2-0.1,0.1,0,0l1.7-2l0.1-0.1l0.6-0.1l6,1.4l0.2,0.3l-0.6,3l0,0
		l-0.6,3l-0.2,0.2l-6-1.4C23.2,58,23,57.8,22.8,57.7z"/>
</g>
</svg>
