<?xml version="1.0" encoding="utf-8"?>
<!-- Generator: Adobe Illustrator 27.0.1, SVG Export Plug-In . SVG Version: 6.00 Build 0)  -->
<svg version="1.1" id="Calque_1" xmlns="http://www.w3.org/2000/svg" xmlns:xlink="http://www.w3.org/1999/xlink" x="0px" y="0px"
	 viewBox="0 0 80.2 80.2" style="enable-background:new 0 0 80.2 80.2;" xml:space="preserve">
<style type="text/css">
	.st0{fill:#FB483B;}
</style>
<g id="Calque_2_00000031902139236782949840000003755255017619330482_">
	<g id="Calque_1-2">
		<path class="st0" d="M80.2,40.1c0,22.2-18,40.1-40.1,40.1c-5,0-10-0.9-14.7-2.8c-1-0.4-2.1-0.9-3.1-1.4
			C2.5,66.2-5.7,42.2,4.2,22.3s33.9-28,53.7-18.1C71.6,10.9,80.2,24.9,80.2,40.1z"/>
		<g id="Calque_1-3">
			<path d="M25.4,63.4v14c-1-0.4-2.1-0.9-3.1-1.4V63.8l2.3-0.4L25.4,63.4z"/>
			<path id="Rectangle_76" d="M23.9,17.2L23.9,17.2c0.9,0,1.6,0.7,1.6,1.6c0,0,0,0,0,0v46.6c0,0.9-0.7,1.6-1.6,1.6c0,0,0,0,0,0l0,0
				c-0.9,0-1.6-0.7-1.6-1.6c0,0,0,0,0,0V18.8C22.3,17.9,23,17.2,23.9,17.2C23.9,17.2,23.9,17.2,23.9,17.2z"/>
			<path id="Tracé_3115" d="M44.1,24l4.1,2.5l0,0l-3.1,3.6l-1.8,0.5l-19.2,2.9H24l-0.5-3.3l0,0L23.2,27h0.1l19.2-3H44.1z"/>
			<path id="Tracé_3116" d="M10.1,40.6l-3-2.7l0,0l2.1-3.4l1.2-0.4l13.4-1.9h0.1l0.4,3.3l0,0l0.4,3.3h-0.1l-13.4,1.8
				C11.2,40.7,10.1,40.6,10.1,40.6z"/>
			<path id="Tracé_3117" d="M16.7,51.6l-0.1-0.1L16,47.6l0,0c0,0.2-0.1,0.1,0,0l1.7-2l0.1-0.1l0.6-0.1l6,1.4l0.2,0.3l-0.6,3l0,0
				l-0.6,3l-0.2,0.2l-6-1.4C17.1,51.9,16.9,51.7,16.7,51.6z"/>
		</g>
	</g>
</g>
</svg>
